<svg width="6453" height="740" viewBox="0 0 6453 740" fill="none" xmlns="http://www.w3.org/2000/svg">
<path d="M541 729H406L163 176V729H0V11H252L476 525L699 11H947V729H785V176L541 729Z" fill="#F5F5F5"/>
<path d="M1354.55 11H1543.55L1900.55 729H1719.55L1643.55 575H1249.55L1173.55 729H995.547L1354.55 11ZM1447.55 175L1317.55 437H1576.55L1447.55 175Z" fill="#F5F5F5"/>
<path d="M1879.2 589L1984.2 468C2068.2 567 2196.2 600 2300.2 600C2411.2 600 2489.2 570 2489.2 518C2489.2 458 2430.2 453 2238.2 432C2067.2 413 1929.2 378 1929.2 234C1929.2 91 2066.2 0 2274.2 0C2436.2 0 2580.2 54 2648.2 133L2543.2 244C2486.2 178 2382.2 139 2263.2 139C2150.2 139 2093.2 173 2093.2 216C2093.2 263 2143.2 273 2320.2 293C2508.2 314 2662.2 343 2662.2 500C2662.2 661 2504.2 740 2293.2 740C2128.2 740 1951.2 681 1879.2 589Z" fill="#F5F5F5"/>
<path d="M2704.23 370C2704.23 156 2884.23 0 3130.23 0C3323.23 0 3461.23 87 3516.23 229L3368.23 300C3332.23 205 3251.23 145 3130.23 145C2985.23 145 2874.23 234 2874.23 370C2874.23 506 2985.23 595 3130.23 595C3251.23 595 3332.23 535 3368.23 440L3516.23 511C3461.23 653 3323.23 740 3130.23 740C2884.23 740 2704.23 584 2704.23 370Z" fill="#F5F5F5"/>
<path d="M4179.12 11H4346.12V729H4179.12V433H3745.12V729H3578.12V11H3745.12V291H4179.12V11Z" fill="#F5F5F5"/>
<path d="M4626.96 11V729H4459.96V11H4626.96Z" fill="#F5F5F5"/>
<path d="M5498.21 11V729H5351.21L4903.21 224V729H4741.21V11H4910.21L5336.21 492V11H5498.21Z" fill="#F5F5F5"/>
<path d="M5906.3 11H6095.3L6452.3 729H6271.3L6195.3 575H5801.3L5725.3 729H5547.3L5906.3 11ZM5999.3 175L5869.3 437H6128.3L5999.3 175Z" fill="#F5F5F5"/>
</svg>
