<svg width="7938" height="1206" viewBox="0 0 7938 1206" fill="none" xmlns="http://www.w3.org/2000/svg">
<path d="M2026 962H1891L1648 409V962H1485V244H1737L1961 758L2184 244H2432V962H2270V409L2026 962Z" fill="white"/>
<path d="M2839.55 244H3028.55L3385.55 962H3204.55L3128.55 808H2734.55L2658.55 962H2480.55L2839.55 244ZM2932.55 408L2802.55 670H3061.55L2932.55 408Z" fill="white"/>
<path d="M3364.2 822L3469.2 701C3553.2 800 3681.2 833 3785.2 833C3896.2 833 3974.2 803 3974.2 751C3974.2 691 3915.2 686 3723.2 665C3552.2 646 3414.2 611 3414.2 467C3414.2 324 3551.2 233 3759.2 233C3921.2 233 4065.2 287 4133.2 366L4028.2 477C3971.2 411 3867.2 372 3748.2 372C3635.2 372 3578.2 406 3578.2 449C3578.2 496 3628.2 506 3805.2 526C3993.2 547 4147.2 576 4147.2 733C4147.2 894 3989.2 973 3778.2 973C3613.2 973 3436.2 914 3364.2 822Z" fill="white"/>
<path d="M4189.23 603C4189.23 389 4369.23 233 4615.23 233C4808.23 233 4946.23 320 5001.23 462L4853.23 533C4817.23 438 4736.23 378 4615.23 378C4470.23 378 4359.23 467 4359.23 603C4359.23 739 4470.23 828 4615.23 828C4736.23 828 4817.23 768 4853.23 673L5001.23 744C4946.23 886 4808.23 973 4615.23 973C4369.23 973 4189.23 817 4189.23 603Z" fill="white"/>
<path d="M5664.12 244H5831.12V962H5664.12V666H5230.12V962H5063.12V244H5230.12V524H5664.12V244Z" fill="white"/>
<path d="M6111.96 244V962H5944.96V244H6111.96Z" fill="white"/>
<path d="M6983.21 244V962H6836.21L6388.21 457V962H6226.21V244H6395.21L6821.21 725V244H6983.21Z" fill="white"/>
<path d="M7391.3 244H7580.3L7937.3 962H7756.3L7680.3 808H7286.3L7210.3 962H7032.3L7391.3 244ZM7484.3 408L7354.3 670H7613.3L7484.3 408Z" fill="white"/>
<path fill-rule="evenodd" clip-rule="evenodd" d="M1049.17 301.455V904.365L524.588 1205.82L0 904.365V301.455L524.588 0L1049.17 301.455ZM525.831 186.937C294.465 186.937 106.906 373.619 106.906 603.903C106.906 834.188 294.465 1020.87 525.831 1020.87C757.197 1020.87 944.756 834.188 944.756 603.903C944.756 373.619 757.197 186.937 525.831 186.937Z" fill="white"/>
<path d="M812.614 603.621C812.614 761.738 683.98 889.918 525.301 889.918C366.622 889.918 237.987 761.738 237.987 603.621C237.987 445.504 366.622 317.324 525.301 317.324C683.98 317.324 812.614 445.504 812.614 603.621Z" fill="white"/>
</svg>
