<svg width="800" height="133" viewBox="0 0 800 133" fill="none" xmlns="http://www.w3.org/2000/svg">
<path d="M213.6 104H201.7L175.6 46.2V104H161.3V32.2H183.7L207.8 86L231.9 32.2H254V104H239.6V46.2L213.6 104ZM295.773 32.2H312.273L348.473 104H332.573L324.273 87.3H283.673L275.273 104H259.573L295.773 32.2ZM303.973 46.7L289.873 74.8H317.973L303.973 46.7ZM346.671 88.4L356.571 78.1C364.771 89.1 377.771 92.5 388.371 92.5C400.371 92.5 408.871 88.9 408.871 83.1C408.871 76.3 402.971 75.7 382.771 73.5C365.171 71.5 351.671 68.2 351.671 54C351.671 40.4 364.971 31.1 385.371 31.1C401.371 31.1 415.771 36.8 422.271 45.4L412.471 54.8C406.971 47.7 396.771 43.6 384.571 43.6C371.771 43.6 365.971 47.7 365.971 52.5C365.971 57.7 370.771 58.9 388.971 61C409.371 63.3 423.771 66 423.771 81.5C423.771 97.2 408.071 105.1 387.771 105.1C370.671 105.1 353.671 98.5 346.671 88.4ZM428.589 68.1C428.589 46.8 446.689 31.1 470.989 31.1C489.789 31.1 503.589 39.6 509.089 53.7L496.389 60.1C492.289 50 483.689 44 471.089 44C455.389 44 443.589 53.6 443.589 68.1C443.589 82.6 455.389 92.2 471.089 92.2C483.689 92.2 492.289 86.2 496.389 76.1L509.089 82.5C503.589 96.6 489.789 105.1 470.989 105.1C446.689 105.1 428.589 89.4 428.589 68.1ZM576.885 32.2H591.685V104H576.885V73.5H530.785V104H516.085V32.2H530.785V60.8H576.885V32.2ZM618.871 32.2V104H604.171V32.2H618.871ZM705.517 32.2V104H692.517L645.617 50.9V104H631.417V32.2H646.417L691.217 82.9V32.2H705.517ZM747.238 32.2H763.738L799.938 104H784.038L775.738 87.3H735.138L726.738 104H711.038L747.238 32.2ZM755.438 46.7L741.338 74.8H769.438L755.438 46.7Z" fill="white"/>
<path fill-rule="evenodd" clip-rule="evenodd" d="M60 5C93.1371 5 120 32.3106 120 66C120 99.6894 93.1371 127 60 127C26.8629 127 0 99.6894 0 66C0 32.3106 26.8629 5 60 5ZM23.8406 41.376C21.9218 42.5023 20.7398 44.5837 20.7398 46.8363V86.3037C20.7398 88.5563 21.9218 90.6377 23.8406 91.7639L57.46 111.498C59.3788 112.624 61.7428 112.624 63.6616 111.498L97.281 91.7639C99.1998 90.6377 100.382 88.5563 100.382 86.3037V46.8363C100.382 44.5837 99.1998 42.5023 97.2811 41.376L63.6616 21.6424C61.7428 20.5162 59.3788 20.5162 57.46 21.6424L23.8406 41.376Z" fill="white"/>
</svg>
