<svg width="1024" height="1024" viewBox="0 0 1024 1024" fill="none" xmlns="http://www.w3.org/2000/svg">
<g clip-path="url(#clip0_28_43)">
<path fill-rule="evenodd" clip-rule="evenodd" d="M512.5 0C795.546 0 1025 229.454 1025 512.5C1025 795.546 795.546 1025 512.5 1025C229.454 1025 0 795.546 0 512.5C0 229.454 229.454 0 512.5 0ZM203.638 305.618C187.249 315.081 177.152 332.568 177.152 351.493V683.085C177.152 702.01 187.249 719.497 203.638 728.959L490.805 894.754C507.194 904.216 527.386 904.216 543.776 894.754L830.942 728.959C847.332 719.497 857.428 702.01 857.428 683.085V351.493C857.428 332.568 847.332 315.081 830.942 305.618L543.776 139.824C527.387 130.361 507.194 130.361 490.805 139.824L203.638 305.618Z" fill="white"/>
</g>
<defs>
<clipPath id="clip0_28_43">
<rect width="1024" height="1024" fill="white"/>
</clipPath>
</defs>
</svg>
