<svg width="343" height="343" viewBox="0 0 343 343" fill="none" xmlns="http://www.w3.org/2000/svg">
<path fill-rule="evenodd" clip-rule="evenodd" d="M171.5 0C266.217 0 343 76.7832 343 171.5C343 266.217 266.217 343 171.5 343C76.7832 343 0 266.217 0 171.5C0 76.7832 76.7832 0 171.5 0ZM68.1443 102.27C62.6598 105.437 59.2812 111.289 59.2812 117.622V228.583C59.2812 234.916 62.6598 240.768 68.1443 243.935L164.24 299.415C169.724 302.582 176.482 302.582 181.966 299.415L278.062 243.935C283.546 240.768 286.925 234.916 286.925 228.583V117.622C286.925 111.289 283.546 105.437 278.062 102.27L181.966 46.7898C176.482 43.6234 169.724 43.6234 164.24 46.7898L68.1443 102.27Z" fill="white"/>
</svg>
